<?xml version="1.0" encoding="utf-8" ?>
<svg baseProfile="full" height="800" version="1.1" width="1200" xmlns="http://www.w3.org/2000/svg" xmlns:ev="http://www.w3.org/2001/xml-events" xmlns:xlink="http://www.w3.org/1999/xlink"><defs><marker id="arrow" markerHeight="5" markerUnits="strokeWidth" markerWidth="5" orient="auto" refX="0" refY="3"><path d="M0,0 L0,6 L6,3 z" fill="rgb(82,88,95)" /></marker></defs><rect fill="rgb(235,235,235)" height="800" stroke="black" width="1200" x="0" y="0" /><rect fill="rgb(231,244,228)" height="40" rx="5" ry="5" stroke="rgb(82,88,95)" width="40" x="100" y="100.0" /><text fill="rgb(82,88,95)" font-size="10" style="font-family:Arial; dominant-baseline:central; text-anchor:middle" x="120.0" y="120.0">G0</text><rect fill="rgb(231,244,228)" height="40" rx="5" ry="5" stroke="rgb(82,88,95)" width="40" x="100" y="160.0" /><text fill="rgb(82,88,95)" font-size="10" style="font-family:Arial; dominant-baseline:central; text-anchor:middle" x="120.0" y="180.0">G1</text><rect fill="rgb(231,244,228)" height="40" rx="5" ry="5" stroke="rgb(82,88,95)" width="40" x="100" y="220.0" /><text fill="rgb(82,88,95)" font-size="10" style="font-family:Arial; dominant-baseline:central; text-anchor:middle" x="120.0" y="240.0">G2</text><rect fill="rgb(231,244,228)" height="40" rx="5" ry="5" stroke="rgb(82,88,95)" width="40" x="100" y="280.0" /><text fill="rgb(82,88,95)" font-size="10" style="font-family:Arial; dominant-baseline:central; text-anchor:middle" x="120.0" y="300.0">G3</text><rect fill="rgb(252,232,241)" height="40" rx="5" ry="5" stroke="rgb(82,88,95)" width="40" x="100" y="340.0" /><text fill="rgb(82,88,95)" font-size="10" style="font-family:Arial; dominant-baseline:central; text-anchor:middle" x="120.0" y="360.0">C0</text><rect fill="rgb(252,232,241)" height="40" rx="5" ry="5" stroke="rgb(82,88,95)" width="40" x="100" y="400.0" /><text fill="rgb(82,88,95)" font-size="10" style="font-family:Arial; dominant-baseline:central; text-anchor:middle" x="120.0" y="420.0">C1</text><rect fill="rgb(252,232,241)" height="40" rx="5" ry="5" stroke="rgb(82,88,95)" width="40" x="100" y="460.0" /><text fill="rgb(82,88,95)" font-size="10" style="font-family:Arial; dominant-baseline:central; text-anchor:middle" x="120.0" y="480.0">C2</text><rect fill="rgb(252,232,241)" height="40" rx="5" ry="5" stroke="rgb(82,88,95)" width="40" x="100" y="520.0" /><text fill="rgb(82,88,95)" font-size="10" style="font-family:Arial; dominant-baseline:central; text-anchor:middle" x="120.0" y="540.0">C3</text><rect fill="rgb(229,241,252)" height="110" rx="5" ry="5" stroke="rgb(82,88,95)" width="110" x="300" y="100.0" /><text fill="rgb(82,88,95)" font-size="10" style="font-family:Arial; dominant-baseline:central; text-anchor:middle" x="355.0" y="155.0">Random Forest F1</text><rect fill="rgb(229,241,252)" height="110" rx="5" ry="5" stroke="rgb(82,88,95)" width="110" x="300" y="265.0" /><text fill="rgb(82,88,95)" font-size="10" style="font-family:Arial; dominant-baseline:central; text-anchor:middle" x="355.0" y="320.0">Random Forest F2</text><line marker-end="url(#arrow)" stroke="rgb(82,88,95)" stroke-dasharray="2" stroke-width="1" x1="160.0" x2="280" y1="120.0" y2="120.0" /><line marker-end="url(#arrow)" stroke="rgb(82,88,95)" stroke-dasharray="2" stroke-width="1" x1="420" x2="430" y1="120.0" y2="120.0" /><text font-size="10" style="font-family:Arial; dominant-baseline:central; text-anchor:middle" x="450" y="120.0">0</text><line marker-end="url(#arrow)" stroke="rgb(82,88,95)" stroke-dasharray="2" stroke-width="1" x1="160.0" x2="280" y1="120.0" y2="285.0" /><line marker-end="url(#arrow)" stroke="rgb(82,88,95)" stroke-dasharray="2" stroke-width="1" x1="420" x2="430" y1="285.0" y2="285.0" /><text font-size="10" style="font-family:Arial; dominant-baseline:central; text-anchor:middle" x="450" y="285.0">0</text><line marker-end="url(#arrow)" stroke="rgb(82,88,95)" stroke-dasharray="2" stroke-width="1" x1="160.0" x2="280" y1="180.0" y2="130.0" /><line marker-end="url(#arrow)" stroke="rgb(82,88,95)" stroke-dasharray="2" stroke-width="1" x1="420" x2="430" y1="130.0" y2="130.0" /><text font-size="10" style="font-family:Arial; dominant-baseline:central; text-anchor:middle" x="450" y="130.0">0</text><line marker-end="url(#arrow)" stroke="rgb(82,88,95)" stroke-dasharray="2" stroke-width="1" x1="160.0" x2="280" y1="180.0" y2="295.0" /><line marker-end="url(#arrow)" stroke="rgb(82,88,95)" stroke-dasharray="2" stroke-width="1" x1="420" x2="430" y1="295.0" y2="295.0" /><text font-size="10" style="font-family:Arial; dominant-baseline:central; text-anchor:middle" x="450" y="295.0">0</text><line marker-end="url(#arrow)" stroke="rgb(82,88,95)" stroke-dasharray="2" stroke-width="1" x1="160.0" x2="280" y1="240.0" y2="140.0" /><line marker-end="url(#arrow)" stroke="rgb(82,88,95)" stroke-dasharray="2" stroke-width="1" x1="420" x2="430" y1="140.0" y2="140.0" /><text font-size="10" style="font-family:Arial; dominant-baseline:central; text-anchor:middle" x="450" y="140.0">0</text><line marker-end="url(#arrow)" stroke="rgb(82,88,95)" stroke-dasharray="2" stroke-width="1" x1="160.0" x2="280" y1="240.0" y2="305.0" /><line marker-end="url(#arrow)" stroke="rgb(82,88,95)" stroke-dasharray="2" stroke-width="1" x1="420" x2="430" y1="305.0" y2="305.0" /><text font-size="10" style="font-family:Arial; dominant-baseline:central; text-anchor:middle" x="450" y="305.0">0</text><line marker-end="url(#arrow)" stroke="rgb(82,88,95)" stroke-dasharray="2" stroke-width="1" x1="160.0" x2="280" y1="300.0" y2="150.0" /><line marker-end="url(#arrow)" stroke="rgb(82,88,95)" stroke-dasharray="2" stroke-width="1" x1="420" x2="430" y1="150.0" y2="150.0" /><text font-size="10" style="font-family:Arial; dominant-baseline:central; text-anchor:middle" x="450" y="150.0">0</text><line marker-end="url(#arrow)" stroke="rgb(82,88,95)" stroke-dasharray="2" stroke-width="1" x1="160.0" x2="280" y1="300.0" y2="315.0" /><line marker-end="url(#arrow)" stroke="rgb(82,88,95)" stroke-dasharray="2" stroke-width="1" x1="420" x2="430" y1="315.0" y2="315.0" /><text font-size="10" style="font-family:Arial; dominant-baseline:central; text-anchor:middle" x="450" y="315.0">0</text><line marker-end="url(#arrow)" stroke="rgb(82,88,95)" stroke-dasharray="2" stroke-width="1" x1="160.0" x2="280" y1="360.0" y2="160.0" /><line marker-end="url(#arrow)" stroke="rgb(82,88,95)" stroke-dasharray="2" stroke-width="1" x1="420" x2="430" y1="160.0" y2="160.0" /><text font-size="10" style="font-family:Arial; dominant-baseline:central; text-anchor:middle" x="450" y="160.0">1</text><line marker-end="url(#arrow)" stroke="rgb(82,88,95)" stroke-dasharray="2" stroke-width="1" x1="160.0" x2="280" y1="360.0" y2="325.0" /><line marker-end="url(#arrow)" stroke="rgb(82,88,95)" stroke-dasharray="2" stroke-width="1" x1="420" x2="430" y1="325.0" y2="325.0" /><text font-size="10" style="font-family:Arial; dominant-baseline:central; text-anchor:middle" x="450" y="325.0">1</text><line marker-end="url(#arrow)" stroke="rgb(82,88,95)" stroke-dasharray="2" stroke-width="1" x1="160.0" x2="280" y1="420.0" y2="170.0" /><line marker-end="url(#arrow)" stroke="rgb(82,88,95)" stroke-dasharray="2" stroke-width="1" x1="420" x2="430" y1="170.0" y2="170.0" /><text font-size="10" style="font-family:Arial; dominant-baseline:central; text-anchor:middle" x="450" y="170.0">1</text><line marker-end="url(#arrow)" stroke="rgb(82,88,95)" stroke-dasharray="2" stroke-width="1" x1="160.0" x2="280" y1="420.0" y2="335.0" /><line marker-end="url(#arrow)" stroke="rgb(82,88,95)" stroke-dasharray="2" stroke-width="1" x1="420" x2="430" y1="335.0" y2="335.0" /><text font-size="10" style="font-family:Arial; dominant-baseline:central; text-anchor:middle" x="450" y="335.0">1</text><line marker-end="url(#arrow)" stroke="rgb(82,88,95)" stroke-dasharray="2" stroke-width="1" x1="160.0" x2="280" y1="480.0" y2="180.0" /><line marker-end="url(#arrow)" stroke="rgb(82,88,95)" stroke-dasharray="2" stroke-width="1" x1="420" x2="430" y1="180.0" y2="180.0" /><text font-size="10" style="font-family:Arial; dominant-baseline:central; text-anchor:middle" x="450" y="180.0">1</text><line marker-end="url(#arrow)" stroke="rgb(82,88,95)" stroke-dasharray="2" stroke-width="1" x1="160.0" x2="280" y1="480.0" y2="345.0" /><line marker-end="url(#arrow)" stroke="rgb(82,88,95)" stroke-dasharray="2" stroke-width="1" x1="420" x2="430" y1="345.0" y2="345.0" /><text font-size="10" style="font-family:Arial; dominant-baseline:central; text-anchor:middle" x="450" y="345.0">1</text><line marker-end="url(#arrow)" stroke="rgb(82,88,95)" stroke-dasharray="2" stroke-width="1" x1="160.0" x2="280" y1="540.0" y2="190.0" /><line marker-end="url(#arrow)" stroke="rgb(82,88,95)" stroke-dasharray="2" stroke-width="1" x1="420" x2="430" y1="190.0" y2="190.0" /><text font-size="10" style="font-family:Arial; dominant-baseline:central; text-anchor:middle" x="450" y="190.0">1</text><line marker-end="url(#arrow)" stroke="rgb(82,88,95)" stroke-dasharray="2" stroke-width="1" x1="160.0" x2="280" y1="540.0" y2="355.0" /><line marker-end="url(#arrow)" stroke="rgb(82,88,95)" stroke-dasharray="2" stroke-width="1" x1="420" x2="430" y1="355.0" y2="355.0" /><text font-size="10" style="font-family:Arial; dominant-baseline:central; text-anchor:middle" x="450" y="355.0">1</text><rect fill="rgb(231,244,228)" height="40" rx="5" ry="5" stroke="rgb(82,88,95)" width="40" x="520" y="100.0" /><text fill="rgb(82,88,95)" font-size="10" style="font-family:Arial; dominant-baseline:central; text-anchor:middle" x="540.0" y="120.0">G0</text><rect fill="rgb(231,244,228)" height="40" rx="5" ry="5" stroke="rgb(82,88,95)" width="40" x="520" y="160.0" /><text fill="rgb(82,88,95)" font-size="10" style="font-family:Arial; dominant-baseline:central; text-anchor:middle" x="540.0" y="180.0">G1</text><rect fill="rgb(231,244,228)" height="40" rx="5" ry="5" stroke="rgb(82,88,95)" width="40" x="520" y="220.0" /><text fill="rgb(82,88,95)" font-size="10" style="font-family:Arial; dominant-baseline:central; text-anchor:middle" x="540.0" y="240.0">G2</text><rect fill="rgb(231,244,228)" height="40" rx="5" ry="5" stroke="rgb(82,88,95)" width="40" x="520" y="280.0" /><text fill="rgb(82,88,95)" font-size="10" style="font-family:Arial; dominant-baseline:central; text-anchor:middle" x="540.0" y="300.0">G3</text><rect fill="rgb(229,241,252)" height="110" rx="5" ry="5" stroke="rgb(82,88,95)" width="110" x="720" y="100.0" /><text fill="rgb(82,88,95)" font-size="10" style="font-family:Arial; dominant-baseline:central; text-anchor:middle" x="775.0" y="155.0">Random Forest F1</text><rect fill="rgb(229,241,252)" height="110" rx="5" ry="5" stroke="rgb(82,88,95)" width="110" x="720" y="265.0" /><text fill="rgb(82,88,95)" font-size="10" style="font-family:Arial; dominant-baseline:central; text-anchor:middle" x="775.0" y="320.0">Random Forest F2</text><line marker-end="url(#arrow)" stroke="rgb(82,88,95)" stroke-dasharray="2" stroke-width="1" x1="580.0" x2="700" y1="120.0" y2="120.0" /><line marker-end="url(#arrow)" stroke="rgb(82,88,95)" stroke-dasharray="2" stroke-width="1" x1="840" x2="850" y1="120.0" y2="120.0" /><text font-size="10" style="font-family:Arial; dominant-baseline:central; text-anchor:middle" x="870" y="120.0">0.54</text><line marker-end="url(#arrow)" stroke="rgb(82,88,95)" stroke-dasharray="2" stroke-width="1" x1="580.0" x2="700" y1="120.0" y2="285.0" /><line marker-end="url(#arrow)" stroke="rgb(82,88,95)" stroke-dasharray="2" stroke-width="1" x1="840" x2="850" y1="285.0" y2="285.0" /><text font-size="10" style="font-family:Arial; dominant-baseline:central; text-anchor:middle" x="870" y="285.0">0.56</text><line marker-end="url(#arrow)" stroke="rgb(82,88,95)" stroke-dasharray="2" stroke-width="1" x1="580.0" x2="700" y1="180.0" y2="130.0" /><line marker-end="url(#arrow)" stroke="rgb(82,88,95)" stroke-dasharray="2" stroke-width="1" x1="840" x2="850" y1="130.0" y2="130.0" /><text font-size="10" style="font-family:Arial; dominant-baseline:central; text-anchor:middle" x="870" y="130.0">0.39</text><line marker-end="url(#arrow)" stroke="rgb(82,88,95)" stroke-dasharray="2" stroke-width="1" x1="580.0" x2="700" y1="180.0" y2="295.0" /><line marker-end="url(#arrow)" stroke="rgb(82,88,95)" stroke-dasharray="2" stroke-width="1" x1="840" x2="850" y1="295.0" y2="295.0" /><text font-size="10" style="font-family:Arial; dominant-baseline:central; text-anchor:middle" x="870" y="295.0">0.95</text><line marker-end="url(#arrow)" stroke="rgb(82,88,95)" stroke-dasharray="2" stroke-width="1" x1="580.0" x2="700" y1="240.0" y2="140.0" /><line marker-end="url(#arrow)" stroke="rgb(82,88,95)" stroke-dasharray="2" stroke-width="1" x1="840" x2="850" y1="140.0" y2="140.0" /><text font-size="10" style="font-family:Arial; dominant-baseline:central; text-anchor:middle" x="870" y="140.0">0.88</text><line marker-end="url(#arrow)" stroke="rgb(82,88,95)" stroke-dasharray="2" stroke-width="1" x1="580.0" x2="700" y1="240.0" y2="305.0" /><line marker-end="url(#arrow)" stroke="rgb(82,88,95)" stroke-dasharray="2" stroke-width="1" x1="840" x2="850" y1="305.0" y2="305.0" /><text font-size="10" style="font-family:Arial; dominant-baseline:central; text-anchor:middle" x="870" y="305.0">0.45</text><line marker-end="url(#arrow)" stroke="rgb(82,88,95)" stroke-dasharray="2" stroke-width="1" x1="580.0" x2="700" y1="300.0" y2="150.0" /><line marker-end="url(#arrow)" stroke="rgb(82,88,95)" stroke-dasharray="2" stroke-width="1" x1="840" x2="850" y1="150.0" y2="150.0" /><text font-size="10" style="font-family:Arial; dominant-baseline:central; text-anchor:middle" x="870" y="150.0">0.67</text><line marker-end="url(#arrow)" stroke="rgb(82,88,95)" stroke-dasharray="2" stroke-width="1" x1="580.0" x2="700" y1="300.0" y2="315.0" /><line marker-end="url(#arrow)" stroke="rgb(82,88,95)" stroke-dasharray="2" stroke-width="1" x1="840" x2="850" y1="315.0" y2="315.0" /><text font-size="10" style="font-family:Arial; dominant-baseline:central; text-anchor:middle" x="870" y="315.0">0.04</text><rect fill="rgb(231,244,228)" height="40" rx="5" ry="5" stroke="rgb(82,88,95)" width="40" x="940" y="100.0" /><text fill="rgb(82,88,95)" font-size="10" style="font-family:Arial; dominant-baseline:central; text-anchor:middle" x="960.0" y="120.0">G1</text><text font-size="10" style="font-family:Arial; dominant-baseline:central" x="1000.0" y="120.0">0.39 + 0.95 = 1.34</text><rect fill="rgb(231,244,228)" height="40" rx="5" ry="5" stroke="rgb(82,88,95)" width="40" x="940" y="160.0" /><text fill="rgb(82,88,95)" font-size="10" style="font-family:Arial; dominant-baseline:central; text-anchor:middle" x="960.0" y="180.0">G2</text><text font-size="10" style="font-family:Arial; dominant-baseline:central" x="1000.0" y="180.0">0.88 + 0.45 = 1.33</text><rect fill="rgb(231,244,228)" height="40" rx="5" ry="5" stroke="rgb(82,88,95)" width="40" x="940" y="220.0" /><text fill="rgb(82,88,95)" font-size="10" style="font-family:Arial; dominant-baseline:central; text-anchor:middle" x="960.0" y="240.0">G0</text><text font-size="10" style="font-family:Arial; dominant-baseline:central" x="1000.0" y="240.0">0.54 + 0.56 = 1.1</text><rect fill="rgb(231,244,228)" height="40" rx="5" ry="5" stroke="rgb(82,88,95)" width="40" x="940" y="280.0" /><text fill="rgb(82,88,95)" font-size="10" style="font-family:Arial; dominant-baseline:central; text-anchor:middle" x="960.0" y="300.0">G3</text><text font-size="10" style="font-family:Arial; dominant-baseline:central" x="1000.0" y="300.0">0.67 + 0.04 = 0.71</text><rect fill="white" fill-opacity="0" height="500" rx="5" ry="5" stroke="rgb(200,200,200)" width="400" x="80" y="80" /><rect fill="white" fill-opacity="0" height="500" rx="5" ry="5" stroke="rgb(200,200,200)" width="400" x="500" y="80" /><rect fill="white" fill-opacity="0" height="500" rx="5" ry="5" stroke="rgb(200,200,200)" width="200" x="920" y="80" /><text fill="rgb(82,88,95)" font-size="20" style="font-family:Arial; dominant-baseline:central" x="455" y="560">A</text><text fill="rgb(82,88,95)" font-size="20" style="font-family:Arial; dominant-baseline:central" x="875" y="560">B</text><text fill="rgb(82,88,95)" font-size="20" style="font-family:Arial; dominant-baseline:central" x="1095" y="560">C</text></svg>